<?xml version="1.0" encoding="UTF-8"?>
<svg width="292" height="658" fill="none" version="1.1" viewBox="0 0 292 658" xmlns="http://www.w3.org/2000/svg">
 <g transform="matrix(1.005 0 0 1 -.74653 .16907)">
  <path d="m-214.08 160.75v416.08h1949.6v-422.55c21.49-13.302 35.86-36.981 36.1-64.028 0.37-41.993-33.86-76.601-75.91-76.749-19.05-0.0683-36.47 6.8443-49.86 18.32-13.09 11.214-32.35 11.481-45.39 0.2105-13.35-11.549-30.78-18.536-49.83-18.536-19.06 0-36.28 6.9069-49.61 18.331-13.13 11.254-32.48 11.254-45.61 0-13.13-11.254-30.65-18.331-49.6-18.331s-36.28 6.9069-49.6 18.331c-13.13 11.254-32.48 11.253-45.61 0-13.33-11.424-30.66-18.331-49.61-18.331-18.94 0-36.27 6.907-49.6 18.331-13.13 11.253-32.48 11.253-45.61 0-13.33-11.424-30.66-18.331-49.6-18.331-18.95 0-36.28 6.907-49.61 18.331-13.33 11.424-32.48 11.254-45.61 0-13.33-11.424-30.654-18.331-49.601-18.331s-36.276 6.9069-49.604 18.331c-13.129 11.254-32.48 11.254-45.609 0-13.329-11.424-30.657-18.331-49.604-18.331s-36.275 6.9069-49.604 18.331c-13.129 11.254-32.48 11.254-45.609 0-13.329-11.424-30.657-18.331-49.604-18.331s-36.275 6.9069-49.604 18.331c-13.129 11.254-32.48 11.254-45.609 0-13.328-11.424-30.657-18.331-49.604-18.331s-36.275 6.9069-49.604 18.331c-13.129 11.254-32.48 11.254-45.609 0-13.328-11.424-30.657-18.331-49.604-18.331s-36.275 6.9069-49.603 18.331c-13.129 11.254-32.481 11.254-45.61 0-13.328-11.424-30.657-18.331-49.604-18.331s-36.275 6.9069-49.603 18.331c-13.129 11.253-32.481 11.253-45.61 0-13.328-11.424-30.657-18.331-49.604-18.331-18.946 0-36.275 6.907-49.603 18.331-13.129 11.253-32.48 11.253-45.609 0-13.328-11.424-30.657-18.331-49.604-18.331-18.947 0-36.481 6.9866-49.838 18.536-13.357 11.549-32.298 11.003-45.387-0.2104-14.166-12.141-32.851-19.173-53.188-18.24-37.261 1.7125-70.22 34.119-72.459 71.293-2.08 34.54 18.941 64.477 49.09 75.867z" fill="#e0d4f2"/>
 </g>
 <rect y="97.667" width="1300" height="560" fill="#e0d4f2" stroke-width=".95015"/>
</svg>
