<svg width="84" height="84" viewBox="0 0 84 84" fill="none"
    xmlns="http://www.w3.org/2000/svg">
    <g clip-path="url(#clip0_3373_10197)">
        <path d="M44.8694 80.5203C65.9598 78.6751 81.5611 60.0822 79.7159 38.9919C77.8707 17.9015 59.2778 2.30019 38.1875 4.14536C17.0971 5.99052 1.4958 24.5834 3.34097 45.6738C5.18614 66.7641 23.7791 82.3655 44.8694 80.5203Z" fill="#DDF23B"/>
        <path d="M11.4222 51.3522L17.41 48.9074L18.2577 50.9902C18.6123 51.8606 18.7779 52.6202 18.7544 53.2688C18.7309 53.9175 18.5473 54.4621 18.2129 54.902C17.8785 55.3419 17.4172 55.6796 16.8294 55.9198C15.8724 56.3103 14.9986 56.3018 14.2073 55.8896C13.4161 55.4774 12.7566 54.6289 12.234 53.3484L11.4175 51.3526L11.4222 51.3522ZM13.7309 52.6558L13.9589 53.2117C14.1506 53.6763 14.4305 53.9633 14.8039 54.077C15.1769 54.1859 15.5937 54.1495 16.0545 53.9675C16.4782 53.7936 16.7728 53.546 16.9429 53.2243C17.1129 52.9027 17.0964 52.4982 16.9031 52.0149L16.6751 51.459L13.7313 52.6605L13.7309 52.6558Z" fill="#9942FF"/>
        <path d="M15.5438 59.889C15.3147 59.5362 15.192 59.2118 15.1798 58.9108C15.1629 58.6102 15.229 58.3402 15.3826 58.1002C15.5316 57.8606 15.7447 57.6532 16.0126 57.4787L18.5983 55.7988L19.6782 57.4601L17.3202 58.9926C17.1995 59.0692 17.1277 59.1652 17.1094 59.2801C17.0911 59.3949 17.1146 59.5014 17.1752 59.6C17.2408 59.7028 17.3431 59.7929 17.4812 59.8611L16.4419 60.66C16.2765 60.6036 16.1113 60.4954 15.9471 60.3446C15.7829 60.1937 15.6463 60.0358 15.5485 59.8886L15.5438 59.889ZM19.5721 56.3555C19.4141 56.1144 19.3584 55.855 19.4006 55.5823C19.4428 55.3096 19.5751 55.0951 19.8033 54.9524C19.9595 54.849 20.1252 54.8015 20.3006 54.8098C20.4759 54.818 20.6405 54.865 20.7951 54.96C20.954 55.0499 21.0779 55.1712 21.1757 55.3184C21.2795 55.4793 21.3419 55.6532 21.3532 55.8362C21.3692 56.0189 21.3414 56.1865 21.2706 56.3485C21.2045 56.51 21.0972 56.6327 20.9543 56.7254C20.7981 56.8287 20.6277 56.8767 20.4524 56.8684C20.2723 56.8606 20.1077 56.8136 19.9535 56.7233C19.7993 56.6329 19.6707 56.512 19.5725 56.3602L19.5721 56.3555Z" fill="#9942FF"/>
        <path d="M17.4718 65.0956C17.3055 64.9214 17.1678 64.7494 17.0492 64.5804C16.9301 64.4067 16.8468 64.263 16.7944 64.1496L17.8878 63.3224C17.9483 63.4209 18.0139 63.5237 18.094 63.63C18.1741 63.7363 18.2534 63.8332 18.3416 63.9246C18.6326 64.2295 18.9015 64.39 19.1573 64.4007C19.4135 64.416 19.6723 64.299 19.9333 64.0449L20.2561 63.7429C19.8833 63.851 19.5499 63.8708 19.2556 63.7974C18.9612 63.724 18.6813 63.5456 18.4111 63.2624C18.1045 62.94 17.9031 62.5801 17.8065 62.1779C17.7104 61.7804 17.7181 61.3833 17.8348 60.9908C17.9515 60.5983 18.1757 60.2483 18.5067 59.9314C18.8377 59.6145 19.2023 59.4127 19.5913 59.3268C19.9798 59.2362 20.3688 59.2588 20.757 59.3806C21.1457 59.507 21.491 59.7317 21.7977 60.0541C22.0157 60.2804 22.1578 60.5559 22.238 60.8793C22.3135 61.2031 22.2728 61.5464 22.1064 61.9103L22.8208 61.2295L24.1781 62.6635L21.5539 65.1444C20.8262 65.8358 20.1185 66.162 19.4315 66.1324C18.7442 66.0982 18.0911 65.7541 17.4625 65.0964L17.4718 65.0956ZM19.9132 62.6827C20.1002 62.8787 20.317 62.9824 20.5638 62.9986C20.8107 63.0147 21.0212 62.9397 21.1959 62.7781C21.3705 62.6165 21.4517 62.4112 21.4401 62.1715C21.4286 61.9318 21.3293 61.7139 21.1469 61.5175C20.9493 61.3082 20.7266 61.1909 20.4794 61.17C20.2321 61.1492 20.0259 61.2191 19.8512 61.3807C19.6812 61.5419 19.5997 61.7425 19.6073 61.992C19.615 62.2415 19.7151 62.4687 19.9128 62.678L19.9132 62.6827Z" fill="#9942FF"/>
        <path d="M23.7923 68.1241L27.2698 62.666L29.0594 63.8073L25.5818 69.2655L23.7876 68.1245L23.7923 68.1241Z" fill="#9942FF"/>
        <path d="M27.0108 70.1753L28.8105 65.822L30.6175 66.5701L30.2235 67.5154C30.4926 67.2465 30.7941 67.0785 31.1285 67.0162C31.4629 66.9539 31.8156 66.9939 32.1782 67.1462C32.7461 67.3797 33.105 67.7589 33.2543 68.2792C33.4037 68.7994 33.3347 69.4143 33.0386 70.1293L32.1386 72.3036L30.3069 71.5435L31.246 69.2761C31.4606 68.7618 31.3596 68.4166 30.9387 68.2458C30.6892 68.1449 30.4491 68.1518 30.2184 68.2663C29.9881 68.3856 29.8082 68.5948 29.6795 68.9034L28.8378 70.9358L27.0061 70.1757L27.0108 70.1753Z" fill="#9942FF"/>
        <path d="M34.6408 72.9013C34.3039 72.827 34.069 72.6776 33.9318 72.4583C33.7946 72.2391 33.7546 71.9971 33.8164 71.7322C33.8777 71.4625 34.0206 71.2612 34.2501 71.1326C34.4795 71.0039 34.7503 70.9708 35.0634 71.0425C35.3765 71.1143 35.6016 71.2598 35.7489 71.4876C35.8963 71.7154 35.9359 71.9526 35.8823 72.2027C35.8171 72.4822 35.6797 72.6924 35.4694 72.8241C35.2591 72.9558 34.9832 72.9846 34.6459 72.9056L34.6408 72.9013ZM34.5727 70.3964L34.7916 67.72L35.111 66.2998L37.0468 66.7393L36.7274 68.1595L35.7815 70.6729L34.5731 70.4011L34.5727 70.3964Z" fill="#9942FF"/>
        <path d="M41.8399 73.6737C41.4956 73.6755 41.2328 73.5852 41.047 73.4032C40.8611 73.2212 40.7704 72.9932 40.7658 72.7246C40.765 72.4462 40.8586 72.2209 41.0503 72.0389C41.2421 71.857 41.4986 71.7684 41.8192 71.764C42.1397 71.7595 42.3931 71.8506 42.5887 72.0365C42.7796 72.2227 42.8794 72.4453 42.8827 72.6998C42.8843 72.9876 42.7963 73.2218 42.6228 73.3975C42.4447 73.5735 42.1835 73.6625 41.8395 73.669L41.8399 73.6737Z" fill="#9942FF"/>
        <path d="M48.4624 72.9848L46.4336 66.8426L48.5666 66.1368C49.4611 65.8414 50.2298 65.727 50.8779 65.7977C51.5259 65.8684 52.0547 66.0865 52.469 66.4514C52.8832 66.8164 53.1897 67.2993 53.3886 67.9001C53.7152 68.8816 53.645 69.7514 53.1784 70.5144C52.7118 71.2773 51.8248 71.8741 50.508 72.3055L48.462 72.9801L48.4624 72.9848ZM49.9207 70.7711L50.4943 70.584C50.9716 70.429 51.2789 70.1661 51.4121 69.8005C51.55 69.4344 51.5416 69.0151 51.3828 68.5476C51.2408 68.1117 51.0107 67.8014 50.7014 67.6114C50.3922 67.4213 49.9896 67.4046 49.4944 67.5706L48.9208 67.7577L49.9164 70.7762L49.9207 70.7711Z" fill="#9942FF"/>
        <path d="M54.0108 65.1982C53.7588 65.3383 53.4981 65.3799 53.2284 65.3186C52.9588 65.2572 52.7571 65.1097 52.628 64.8755C52.5379 64.7088 52.4998 64.5422 52.5178 64.3707C52.5358 64.1993 52.5973 64.0381 52.7021 63.8874C52.8069 63.7366 52.9333 63.617 53.0864 63.5328C53.2574 63.4376 53.4325 63.3893 53.6164 63.3873C53.8003 63.3854 53.9688 63.4226 54.1221 63.5035C54.2755 63.5845 54.3939 63.6969 54.4777 63.8453C54.5678 64.012 54.606 64.1786 54.5837 64.3552C54.5614 64.5318 54.5046 64.6925 54.4045 64.8428C54.3044 64.9932 54.1729 65.1085 54.0155 65.1978L54.0108 65.1982ZM57.2622 69.4541C56.8933 69.661 56.5618 69.7561 56.2596 69.7542C55.9569 69.7477 55.6946 69.6621 55.4631 69.4982C55.2317 69.3344 55.0422 69.1103 54.8856 68.8314L53.3849 66.1356L55.1177 65.1722L56.4843 67.6296C56.552 67.7558 56.6437 67.8327 56.7593 67.8604C56.8703 67.8884 56.9777 67.8743 57.0856 67.813C57.1935 67.7516 57.2891 67.6583 57.3675 67.5287L58.0955 68.6213C58.0247 68.7833 57.911 68.9395 57.7453 69.0956C57.5796 69.2517 57.4204 69.3742 57.263 69.4635L57.2622 69.4541Z" fill="#9942FF"/>
        <path d="M62.5824 67.8937C62.3976 68.0467 62.2154 68.176 62.0358 68.2813C61.8567 68.3914 61.7074 68.4658 61.5881 68.5046L60.8364 67.3574C60.9405 67.3058 61.0484 67.2445 61.1601 67.1733C61.2719 67.1022 61.3786 67.0268 61.4708 66.9479C61.7965 66.6787 61.9723 66.4226 62.0068 66.1695C62.0366 65.9167 61.9379 65.6516 61.7056 65.3699L61.4258 65.0309C61.5105 65.4058 61.5021 65.7416 61.4096 66.0329C61.3171 66.3242 61.1187 66.5917 60.819 66.835C60.4758 67.1199 60.0994 67.2944 59.6947 67.3629C59.2901 67.4313 58.8952 67.3951 58.5143 67.249C58.1334 67.103 57.7958 66.8588 57.505 66.502C57.2146 66.1498 57.0354 65.7737 56.9771 65.3777C56.9142 64.982 56.9606 64.5956 57.1117 64.219C57.2629 63.8423 57.5126 63.5137 57.8558 63.2288C58.0978 63.0283 58.3843 62.9041 58.7097 62.8473C59.0398 62.7901 59.3763 62.8598 59.7281 63.0509L59.0998 62.2893L60.6229 61.0328L62.9198 63.8194C63.5586 64.5942 63.835 65.3252 63.7577 66.0068C63.6758 66.6889 63.2872 67.3176 62.5875 67.898L62.5824 67.8937ZM60.3441 65.2908C60.5511 65.1216 60.6744 64.9126 60.7047 64.6645C60.7396 64.416 60.6786 64.2043 60.5255 64.0194C60.3725 63.8346 60.1804 63.7429 59.939 63.7356C59.6981 63.7331 59.4739 63.8141 59.2669 63.9832C59.0424 64.1681 58.9148 64.3822 58.8744 64.6217C58.8344 64.8659 58.8907 65.0781 59.0438 65.2629C59.1917 65.4435 59.3885 65.5348 59.6396 65.5459C59.8907 65.557 60.1239 65.4705 60.3484 65.2857L60.3441 65.2908Z" fill="#9942FF"/>
        <path d="M66.0415 61.7956L60.8391 57.9511L62.1007 56.2408L67.303 60.0853L66.0415 61.7956Z" fill="#9942FF"/>
        <path d="M68.3127 58.7266L64.0941 56.632L64.965 54.8803L65.8829 55.338C65.6314 55.0532 65.4861 54.7403 65.4472 54.4039C65.4032 54.0632 65.4721 53.7173 65.6487 53.3621C65.9213 52.8096 66.3217 52.4772 66.8546 52.3645C67.3824 52.2476 67.992 52.3641 68.6826 52.7049L70.7891 53.7477L69.9062 55.524L67.7058 54.4328C67.2073 54.1838 66.8554 54.2618 66.6548 54.6663C66.5344 54.9081 66.5272 55.1495 66.6281 55.3861C66.729 55.6227 66.9301 55.8175 67.2263 55.9662L69.1999 56.9451L68.3169 58.7215L68.3127 58.7266Z" fill="#9942FF"/>
        <path d="M69.0504 51.1997L66.3913 50.7999L64.9956 50.3839L65.5656 48.4839L66.9613 48.8999L69.4043 50.0124L69.0508 51.2043L69.0504 51.1997ZM71.5513 51.3018C71.4527 51.6314 71.2885 51.8581 71.0582 51.9774C70.828 52.0966 70.5848 52.1226 70.3276 52.0413C70.066 51.9651 69.8725 51.8027 69.7575 51.5673C69.6425 51.3319 69.6281 51.0594 69.7241 50.7537C69.8153 50.4484 69.9804 50.231 70.2145 50.102C70.4487 49.9729 70.6918 49.9469 70.9342 50.0201C71.2106 50.1045 71.4076 50.2524 71.5265 50.478C71.6449 50.6989 71.6503 50.9769 71.5517 51.3065L71.5513 51.3018Z" fill="#9942FF"/>
        <path d="M72.8111 44.1732C72.7895 44.5196 72.6843 44.7743 72.4871 44.9473C72.2898 45.1203 72.0605 45.197 71.7899 45.1782C71.5145 45.1598 71.2927 45.0518 71.1282 44.8443C70.9595 44.642 70.8893 44.3791 70.9083 44.0565C70.9277 43.7386 71.0379 43.4882 71.2347 43.3105C71.4363 43.1324 71.66 43.0468 71.9162 43.0621C72.2057 43.0793 72.4318 43.1822 72.5946 43.3709C72.7574 43.5596 72.8327 43.8268 72.8107 44.1685L72.8111 44.1732Z" fill="#9942FF"/>
        <path d="M72.5884 37.5297L66.3191 39.1307L65.7651 36.9515C65.5345 36.0418 65.4758 35.2635 65.5895 34.6211C65.7036 33.9834 65.9557 33.4658 66.3512 33.0772C66.7467 32.6886 67.2469 32.4183 67.8608 32.2608C68.8625 32.0032 69.7283 32.1352 70.4532 32.6523C71.1827 33.169 71.7172 34.0992 72.0566 35.4429L72.5884 37.5297ZM70.48 35.9254L70.33 35.3438C70.2073 34.859 69.9666 34.5355 69.6126 34.373C69.2585 34.2104 68.8414 34.1903 68.3613 34.3125C67.9182 34.4268 67.5914 34.63 67.3767 34.9273C67.162 35.2245 67.1215 35.6245 67.2505 36.1277L67.4005 36.7093L70.48 35.9254Z" fill="#9942FF"/>
        <path d="M65.1999 31.4604C65.3221 31.7234 65.345 31.9857 65.2692 32.2519C65.1887 32.5186 65.0306 32.707 64.7858 32.8228C64.6136 32.904 64.4458 32.9281 64.2731 32.896C64.105 32.8635 63.9478 32.7923 63.8013 32.6824C63.6548 32.5725 63.5484 32.4355 63.4732 32.2769C63.3916 32.1 63.3573 31.9236 63.3648 31.7389C63.3773 31.5585 63.4242 31.3939 63.515 31.2444C63.6057 31.0948 63.7236 30.9854 63.8775 30.9106C64.0498 30.8294 64.2223 30.8049 64.3954 30.8417C64.5681 30.8738 64.73 30.9445 64.8719 31.0549C65.0137 31.1652 65.1247 31.3018 65.2004 31.465L65.1999 31.4604ZM69.6702 28.5017C69.8499 28.8825 69.9266 29.2203 69.9009 29.5199C69.8752 29.8195 69.7705 30.0788 69.5914 30.2974C69.4123 30.516 69.1729 30.6927 68.8872 30.8263L66.0996 32.1415L65.2535 30.3465L67.7964 29.1471C67.9277 29.0837 68.0101 29.001 68.0428 28.8895C68.0756 28.7781 68.0708 28.67 68.0142 28.5617C67.9618 28.4483 67.8727 28.3475 67.747 28.2594L68.8841 27.6077C69.0375 27.6887 69.1899 27.8122 69.3327 27.9885C69.4756 28.1648 69.5895 28.3342 69.6652 28.4975L69.6702 28.5017Z" fill="#9942FF"/>
        <path d="M68.4738 23.0839C68.6136 23.2794 68.7292 23.4675 68.8213 23.6576C68.9177 23.8427 68.9785 23.9979 69.013 24.1223L67.8163 24.7934C67.7694 24.6889 67.717 24.5755 67.6548 24.4582C67.5926 24.3409 67.5219 24.2339 67.4516 24.1315C67.2092 23.7892 66.9609 23.5939 66.7112 23.5449C66.4615 23.496 66.1854 23.5768 65.8926 23.7912L65.5329 24.0492C65.9149 23.9922 66.2477 24.0197 66.5317 24.1364C66.8152 24.2485 67.0656 24.4673 67.2914 24.7826C67.5494 25.1424 67.7014 25.5302 67.7421 25.942C67.7829 26.3538 67.7177 26.7418 67.5521 27.115C67.3819 27.4885 67.1122 27.8048 66.7392 28.0734C66.3659 28.3373 65.9827 28.4888 65.5799 28.5241C65.1817 28.5589 64.798 28.4886 64.433 28.3082C64.0683 28.1324 63.7568 27.8623 63.4984 27.4979C63.3158 27.2449 63.2099 26.9521 63.1761 26.6199C63.147 26.2874 63.2358 25.954 63.4473 25.6192L62.6433 26.1946L61.4973 24.5863L64.4382 22.4883C65.2558 21.9071 66.0002 21.6768 66.6766 21.8016C67.3531 21.9265 67.9526 22.3602 68.4801 23.1023L68.4738 23.0839ZM65.7225 25.137C65.5665 24.9194 65.3657 24.7812 65.1206 24.7318C64.8756 24.6825 64.6575 24.7252 64.4668 24.8646C64.2713 25.0044 64.1651 25.193 64.1435 25.4309C64.1218 25.6688 64.1844 25.8993 64.345 26.1165C64.512 26.352 64.7183 26.4992 64.9544 26.554C65.1952 26.6085 65.4137 26.5705 65.6044 26.4311C65.7909 26.2968 65.9018 26.1077 65.9273 25.8601C65.9528 25.6124 65.8847 25.373 65.7178 25.1374L65.7225 25.137Z" fill="#9942FF"/>
        <path d="M62.632 19.2101L58.4376 24.1363L56.8209 22.758L61.0152 17.8318L62.632 19.2101Z" fill="#9942FF"/>
        <path d="M59.7253 16.7363L57.3482 20.8003L55.6616 19.8104L56.1788 18.925C55.8779 19.1543 55.5536 19.2771 55.2155 19.2972C54.8724 19.3131 54.5342 19.2247 54.191 19.0234C53.6587 18.7113 53.3574 18.2893 53.2775 17.7535C53.1976 17.2177 53.3529 16.6189 53.7429 15.9523L54.9294 13.9229L56.6406 14.9248L55.4007 17.0439C55.1172 17.5265 55.1718 17.8804 55.5648 18.1103C55.7984 18.2456 56.0367 18.272 56.2839 18.1843C56.5315 18.1013 56.7369 17.9134 56.9052 17.6249L58.0179 15.7246L59.7292 16.7265L59.7253 16.7363Z" fill="#9942FF"/>
        <path d="M52.2625 15.483L51.6802 18.1062L51.1673 19.4726L49.3081 18.7763L49.821 17.4099L51.101 15.0466L52.2625 15.483ZM52.5357 12.9954C52.8579 13.1183 53.0714 13.2931 53.1775 13.534C53.2831 13.7701 53.2903 14.0149 53.1946 14.2687C53.0992 14.5272 52.9262 14.7076 52.6845 14.8042C52.4385 14.906 52.1687 14.8965 51.8664 14.7861C51.5688 14.6753 51.3595 14.4954 51.2488 14.2549C51.1377 14.0098 51.1262 13.7701 51.2138 13.5311C51.3178 13.2625 51.4806 13.0736 51.7078 12.9735C51.935 12.8734 52.2142 12.882 52.5361 13.0001L52.5357 12.9954Z" fill="#9942FF"/>
        <path d="M43.5026 11.0576C43.8491 11.0792 44.1041 11.1891 44.2724 11.3867C44.4407 11.5844 44.5174 11.8137 44.5033 12.0839C44.4849 12.3593 44.3722 12.5815 44.1695 12.7456C43.9667 12.9096 43.6996 12.9849 43.3816 12.9655C43.0637 12.9462 42.8134 12.8359 42.6353 12.6344C42.4572 12.4329 42.3758 12.204 42.3911 11.9478C42.4083 11.6584 42.5159 11.4319 42.7046 11.269C42.8933 11.1062 43.1609 11.0356 43.5073 11.0572L43.5026 11.0576Z" fill="#9942FF"/>
        <path d="M36.8601 11.2515L38.4333 17.5279L36.2533 18.0726C35.3386 18.2989 34.5649 18.3572 33.9268 18.2384C33.2887 18.1196 32.7707 17.8628 32.3872 17.4716C31.9986 17.0761 31.7326 16.5708 31.575 15.9568C31.3222 14.9548 31.4588 14.0886 31.9759 13.3637C32.493 12.6388 33.4283 12.1086 34.772 11.7692L36.8596 11.2468L36.8601 11.2515ZM35.2456 13.3514L34.6636 13.4967C34.1788 13.6193 33.8502 13.8558 33.6876 14.2098C33.5251 14.5638 33.505 14.9809 33.6225 15.4615C33.7321 15.905 33.9358 16.2364 34.2326 16.4465C34.5298 16.6612 34.9298 16.7017 35.4334 16.5774L36.0154 16.4321L35.2409 13.3518L35.2456 13.3514Z" fill="#9942FF"/>
        <path d="M27.8099 14.134C28.1906 13.9544 28.5289 13.8823 28.8285 13.908C29.1281 13.9337 29.3874 14.0385 29.6017 14.2227C29.8207 14.4064 29.997 14.6412 30.131 14.9315L31.4326 17.725L29.6321 18.5621L28.4416 16.0138C28.3782 15.8825 28.2955 15.8001 28.1841 15.7673C28.0722 15.7299 27.9645 15.7393 27.8558 15.7913C27.7424 15.8437 27.6416 15.9328 27.5535 16.0585L26.9061 14.9163C26.9871 14.7629 27.1153 14.6101 27.2869 14.4677C27.4632 14.3248 27.6326 14.2109 27.7958 14.1352L27.8099 14.134ZM30.7506 18.6153C31.0137 18.4932 31.276 18.4702 31.5426 18.5507C31.8092 18.6312 31.9981 18.7941 32.1139 19.0388C32.195 19.2111 32.2192 19.3788 32.1871 19.5516C32.1546 19.7196 32.0834 19.8769 31.9684 20.0191C31.8534 20.1613 31.7168 20.2723 31.5582 20.3476C31.3813 20.4291 31.2049 20.4634 31.0198 20.4513C30.8393 20.4388 30.6744 20.3871 30.5248 20.2964C30.3753 20.2056 30.2655 20.0831 30.1957 19.9335C30.1146 19.7612 30.0901 19.5887 30.1268 19.4156C30.1589 19.2429 30.2297 19.0809 30.3404 18.9438C30.4507 18.802 30.5873 18.6909 30.7553 18.6149L30.7506 18.6153Z" fill="#9942FF"/>
        <path d="M22.3989 15.3017C22.5943 15.1619 22.7829 15.051 22.9726 14.9542C23.1581 14.8624 23.3128 14.797 23.4372 14.7625L24.104 15.9643C23.9996 16.0112 23.8862 16.0636 23.7689 16.1258C23.6516 16.188 23.5445 16.2587 23.4421 16.329C23.0999 16.5713 22.9046 16.8197 22.8556 17.0694C22.8067 17.3191 22.8874 17.5952 23.0972 17.8884L23.3505 18.2485C23.2935 17.8665 23.3257 17.5333 23.4428 17.254C23.56 16.9747 23.7737 16.72 24.0937 16.4938C24.4581 16.2354 24.8417 16.0886 25.2535 16.0478C25.6657 16.0118 26.0533 16.0722 26.4222 16.2429C26.7911 16.4136 27.1124 16.6875 27.3763 17.0609C27.6403 17.4343 27.7875 17.8226 27.8223 18.2207C27.8572 18.6188 27.7822 19.0029 27.6018 19.368C27.4213 19.733 27.1512 20.0446 26.7868 20.303C26.5291 20.486 26.2363 20.5919 25.9084 20.6205C25.5759 20.6496 25.2425 20.5608 24.9073 20.3447L25.478 21.1491L23.8646 22.2908L21.7803 19.344C21.199 18.5264 20.9777 17.7765 21.1077 17.1043C21.2372 16.4275 21.6709 15.8279 22.4134 15.3052L22.3989 15.3017ZM24.443 18.0585C24.2207 18.2148 24.0872 18.4153 24.0374 18.6556C23.9881 18.9007 24.0308 19.1188 24.1659 19.3146C24.301 19.5105 24.4897 19.6167 24.7326 19.6426C24.9705 19.6643 25.201 19.6016 25.4233 19.4453C25.6589 19.2784 25.8064 19.0767 25.8609 18.8359C25.9153 18.5952 25.8777 18.3814 25.7379 18.1859C25.6032 17.9948 25.4146 17.8886 25.1665 17.8584C24.9184 17.8281 24.6794 17.901 24.4434 18.0632L24.443 18.0585Z" fill="#9942FF"/>
        <path d="M18.4875 21.1421L23.3966 25.3568L22.0132 26.9692L17.1041 22.7545L18.4875 21.1421Z" fill="#9942FF"/>
        <path d="M16.0074 24.0257L20.0636 26.4224L19.0687 28.1047L18.1876 27.5824C18.4169 27.8833 18.5396 28.2076 18.5555 28.5508C18.5713 28.8939 18.4783 29.2325 18.2813 29.5706C17.9688 30.0983 17.5425 30.4046 17.0063 30.4798C16.4701 30.555 15.8713 30.3998 15.2043 30.005L13.1787 28.8088L14.1904 27.1014L16.3056 28.3512C16.7835 28.635 17.1421 28.58 17.3725 28.1918C17.5078 27.9581 17.5341 27.7198 17.4511 27.4722C17.3681 27.2246 17.1802 27.0192 16.8964 26.8505L15.0004 25.7326L16.0074 24.0257Z" fill="#9942FF"/>
        <path d="M12.2367 31.2032C12.3595 30.8809 12.539 30.667 12.7752 30.5614C13.0114 30.4558 13.2566 30.4532 13.5104 30.549C13.7693 30.649 13.9445 30.8178 14.0463 31.0637C14.1434 31.3101 14.1386 31.5795 14.0231 31.8776C13.9076 32.1756 13.7319 32.3797 13.4872 32.4955C13.2421 32.6066 13.0024 32.6182 12.763 32.5258C12.4943 32.4219 12.3101 32.2587 12.2096 32.0268C12.1095 31.7995 12.1181 31.5203 12.241 31.1981L12.2367 31.2032ZM14.7251 31.4858L17.3444 32.0778L18.7065 32.5958L18.0004 34.4511L16.6383 33.9331L14.2793 32.6481L14.7204 31.4862L14.7251 31.4858Z" fill="#9942FF"/>
        <path d="M10.2604 40.2302C10.2824 39.8885 10.3919 39.6287 10.5895 39.4604C10.7872 39.2921 11.0212 39.215 11.2871 39.2342C11.5625 39.2526 11.7801 39.3657 11.9492 39.5727C12.1183 39.7798 12.1885 40.0426 12.1645 40.361C12.1404 40.6793 12.0302 40.9296 11.8286 41.1077C11.6271 41.2858 11.3982 41.3672 11.1416 41.3472C10.8518 41.3254 10.6304 41.222 10.4676 41.0333C10.3047 40.8446 10.2341 40.577 10.2604 40.2302Z" fill="#9942FF"/>
    </g>
    <rect x="25.1167" y="32.8943" width="30.2222" height="21.6667" rx="3.33333" transform="rotate(-5 25.1167 32.8943)" stroke="#9942FF" stroke-width="1.66667"/>
    <path d="M26.9597 33.5703L41.4343 41.5613L53.5249 31.2462" stroke="#9942FF" stroke-width="1.66667" stroke-linecap="round" stroke-linejoin="round"/>
    <defs>
        <clipPath id="clip0_3373_10197">
            <rect width="76.6667" height="76.6667" fill="white" transform="translate(0 7.48633) rotate(-5)"/>
        </clipPath>
    </defs>
</svg>
